<svg width="180" height="270" viewBox="0 0 180 270" fill="none" xmlns="http://www.w3.org/2000/svg">
<g id="Frame 1" clip-path="url(#clip0_1_2)">
<g id="lightDroup">
<path id="light1" d="M0 1C0 -4.52285 4.47715 -9 10 -9H47C52.5228 -9 57 -4.52285 57 1V268C57 273.523 52.5228 278 47 278H28.5H10C4.47715 278 0 273.523 0 268V1Z" fill="#59B4F6"/>
<path id="light2" d="M90 1C90 -4.52285 94.4772 -9 100 -9H140C145.523 -9 150 -4.52285 150 1V268C150 273.523 145.523 278 140 278H120H100C94.4772 278 90 273.523 90 268V1Z" fill="#59B4F6"/>
</g>
<g id="darkGroup">
<path id="dark1" opacity="0.7" d="M45 1C45 -4.52285 49.4772 -9 55 -9H93C98.5228 -9 103 -4.52285 103 1V268C103 273.523 98.5228 278 93 278H74H55C49.4772 278 45 273.523 45 268V1Z" fill="#413EC5"/>
<path id="dark2" opacity="0.7" d="M135 1C135 -4.52285 139.477 -9 145 -9H181C186.523 -9 191 -4.52285 191 1V268C191 273.523 186.523 278 181 278H163H145C139.477 278 135 273.523 135 268V1Z" fill="#413EC5"/>
</g>
</g>
<defs>
<clipPath id="clip0_1_2">
<rect width="180" height="270" fill="white"/>
</clipPath>
</defs>
</svg>
